<svg width="498" height="506" viewBox="0 0 498 506" fill="none" xmlns="http://www.w3.org/2000/svg">
<rect width="498" height="506" fill="white"/>
<rect width="312" height="506" fill="#D9D9D9"/>
<rect x="312" y="154" width="186" height="352" fill="#BCB9B9"/>
<rect x="31" y="47" width="251" height="44" fill="#BCB9B9"/>
<rect x="31" y="217" width="251" height="44" fill="#BCB9B9"/>
<rect x="31" y="302" width="251" height="44" fill="#BCB9B9"/>
<rect x="31" y="132" width="251" height="44" fill="#BCB9B9"/>
<rect x="333" y="196" width="60" height="43" fill="#D9D9D9"/>
<rect x="421" y="196" width="60" height="43" fill="#D9D9D9"/>
<rect x="333" y="336" width="60" height="43" fill="#D9D9D9"/>
<rect x="421" y="336" width="60" height="43" fill="#D9D9D9"/>
<rect x="333" y="266" width="60" height="43" fill="#D9D9D9"/>
<rect x="421" y="266" width="60" height="43" fill="#D9D9D9"/>
<rect x="108" y="400" width="96" height="106" fill="#BCB9B9"/>
<rect x="108" y="400" width="96" height="106" fill="#BCB9B9"/>
<rect x="120" y="445" width="72" height="61" fill="#D9D9D9"/>
<rect x="369" y="445" width="72" height="61" fill="#D9D9D9"/>
</svg>
